<svg width="768" height="768" viewBox="0 0 768 768" fill="none" xmlns="http://www.w3.org/2000/svg" role="img" aria-labelledby="title desc">
  <title id="title">KidProtect safety mark</title>
  <desc id="desc">A child holding a location balloon inside a turquoise protective shield</desc>
  <defs>
    <linearGradient id="shield" x1="170" y1="150" x2="590" y2="610" gradientUnits="userSpaceOnUse">
      <stop stop-color="#16C3D0"/>
      <stop offset="1" stop-color="#77E5D4"/>
    </linearGradient>
    <linearGradient id="child" x1="290" y1="270" x2="470" y2="590" gradientUnits="userSpaceOnUse">
      <stop stop-color="#7D8998"/>
      <stop offset="1" stop-color="#606E7F"/>
    </linearGradient>
    <linearGradient id="balloon" x1="490" y1="170" x2="555" y2="330" gradientUnits="userSpaceOnUse">
      <stop stop-color="#D830A5"/>
      <stop offset="1" stop-color="#C52CA0"/>
    </linearGradient>
  </defs>
  <path d="M384 126 594 210v176c0 137-84 211-210 263-126-52-210-126-210-263V210l210-84Z" fill="white" stroke="url(#shield)" stroke-width="17" stroke-linejoin="round"/>
  <path d="M384 156 563 228v157c0 116-67 177-179 226-112-49-179-110-179-226V228l179-72Z" stroke="#B5F0E8" stroke-width="5" stroke-linejoin="round"/>
  <circle cx="369" cy="300" r="66" fill="url(#child)"/>
  <path d="M291 425c13-71 43-103 79-103 38 0 68 33 80 103l18 82 58 61-28 31-82-68-9 92h-63l-10-92-72 68-29-31 58-61 18-82Z" fill="url(#child)"/>
  <path d="M302 302c-38 0-58 19-68 49 32 13 60 6 77-18M438 302c38 0 58 19 68 49-32 13-60 6-77-18" fill="none" stroke="#606E7F" stroke-width="27" stroke-linecap="round"/>
  <path d="M512 337c-2-35-15-62-29-87" stroke="#606E7F" stroke-width="12" stroke-linecap="round"/>
  <path d="M562 218c0 58-42 101-42 101s-42-43-42-101a42 42 0 1 1 84 0Z" fill="url(#balloon)"/>
  <circle cx="520" cy="218" r="14" fill="white"/>
</svg>
